# xmcd
#
# Track frame offsets:
#	150
#	20440
#	40056
#	56298
#	73197
#	90423
#	108528
#	122668
#	139684
#	159071
#	177680
#	197292
#	219128
#	238235
#	257218
#	272684
#	286203
#	301524
#
# Disc length: 4290 seconds
#
# Revision: 1
# Processed by: cddbd v1.5.2PL0 Copyright (c) Steve Scherf et al.
# Submitted via: audiograbber 1.83.01
#
DISCID=f010c012
DTITLE=Various Artist - Now That's What I Call Country Ballads
DYEAR=1900
DGENRE=Country
TTITLE0=Taylor Swift - Forever and Always (Piano Version)
TTITLE1=Keith Urban - Tonight I Wanna Cry
TTITLE2=Rascal Flatts - What Hurts The Most
TTITLE3=The Band Perry - If I Die Young
TTITLE4=Martina McBride - I'm Gonna Love You Through It
TTITLE5=Luke Bryan - Do I
TTITLE6=Jake Owen - Don't Think I Can't Love You
TTITLE7=Lady Antebellum - American Honey
TTITLE8=Jason Aldean and Kelly Clarkson - Don't You Wanna Stay
TTITLE9=Shania Twain - Forever and for Always
TTITLE10=Carrie Underwood - I Told You So
TTITLE11=Sara Evans - I Could Not Ask for More
TTITLE12=Kenny Chesney - Better As a Memory
TTITLE13=Dierks Bentley - Come a Little Closer
TTITLE14=Chris Young - The Man I Want to Be
TTITLE15=Darius Rucker - Don't Think I Don't Think Abou
TTITLE16=George Strait - I Saw God Today
TTITLE17=Alan Jackson - Remember When
EXTD=
EXTT0=
EXTT1=
EXTT2=
EXTT3=
EXTT4=
EXTT5=
EXTT6=
EXTT7=
EXTT8=
EXTT9=
EXTT10=
EXTT11=
EXTT12=
EXTT13=
EXTT14=
EXTT15=
EXTT16=
EXTT17=
PLAYORDER=
